<?xml version="1.0" standalone="no"?>
<svg xmlns:xlink="http://www.w3.org/1999/xlink" id="wave" style="transform:rotate(0deg); transition: 0.3s" viewBox="0 0 1440 380" version="1.1" xmlns="http://www.w3.org/2000/svg"><defs><linearGradient id="sw-gradient-0" x1="0" x2="0" y1="1" y2="0"><stop stop-color="rgba(253.043, 253.043, 253.043, 1)" offset="0%"/><stop stop-color="rgba(254.706, 46.879, 255, 1)" offset="100%"/></linearGradient></defs><path style="transform:translate(0, 0px); opacity:1" fill="url(#sw-gradient-0)" d="M0,266L40,234.3C80,203,160,139,240,120.3C320,101,400,127,480,139.3C560,152,640,152,720,152C800,152,880,152,960,145.7C1040,139,1120,127,1200,145.7C1280,165,1360,215,1440,228C1520,241,1600,215,1680,215.3C1760,215,1840,241,1920,259.7C2000,279,2080,291,2160,247C2240,203,2320,101,2400,95C2480,89,2560,177,2640,190C2720,203,2800,139,2880,145.7C2960,152,3040,228,3120,247C3200,266,3280,228,3360,234.3C3440,241,3520,291,3600,291.3C3680,291,3760,241,3840,234.3C3920,228,4000,266,4080,285C4160,304,4240,304,4320,297.7C4400,291,4480,279,4560,285C4640,291,4720,317,4800,297.7C4880,279,4960,215,5040,171C5120,127,5200,101,5280,82.3C5360,63,5440,51,5520,69.7C5600,89,5680,139,5720,164.7L5760,190L5760,380L5720,380C5680,380,5600,380,5520,380C5440,380,5360,380,5280,380C5200,380,5120,380,5040,380C4960,380,4880,380,4800,380C4720,380,4640,380,4560,380C4480,380,4400,380,4320,380C4240,380,4160,380,4080,380C4000,380,3920,380,3840,380C3760,380,3680,380,3600,380C3520,380,3440,380,3360,380C3280,380,3200,380,3120,380C3040,380,2960,380,2880,380C2800,380,2720,380,2640,380C2560,380,2480,380,2400,380C2320,380,2240,380,2160,380C2080,380,2000,380,1920,380C1840,380,1760,380,1680,380C1600,380,1520,380,1440,380C1360,380,1280,380,1200,380C1120,380,1040,380,960,380C880,380,800,380,720,380C640,380,560,380,480,380C400,380,320,380,240,380C160,380,80,380,40,380L0,380Z"/><defs><linearGradient id="sw-gradient-1" x1="0" x2="0" y1="1" y2="0"><stop stop-color="rgba(255, 255, 255, 1)" offset="0%"/><stop stop-color="rgba(251.36, 202.362, 255, 1)" offset="100%"/></linearGradient></defs><path style="transform:translate(0, 50px); opacity:0.9" fill="url(#sw-gradient-1)" d="M0,38L40,88.7C80,139,160,241,240,278.7C320,317,400,291,480,278.7C560,266,640,266,720,228C800,190,880,114,960,101.3C1040,89,1120,139,1200,145.7C1280,152,1360,114,1440,126.7C1520,139,1600,203,1680,209C1760,215,1840,165,1920,158.3C2000,152,2080,190,2160,202.7C2240,215,2320,203,2400,171C2480,139,2560,89,2640,63.3C2720,38,2800,38,2880,69.7C2960,101,3040,165,3120,164.7C3200,165,3280,101,3360,101.3C3440,101,3520,165,3600,183.7C3680,203,3760,177,3840,177.3C3920,177,4000,203,4080,215.3C4160,228,4240,228,4320,190C4400,152,4480,76,4560,76C4640,76,4720,152,4800,158.3C4880,165,4960,101,5040,88.7C5120,76,5200,114,5280,120.3C5360,127,5440,101,5520,101.3C5600,101,5680,127,5720,139.3L5760,152L5760,380L5720,380C5680,380,5600,380,5520,380C5440,380,5360,380,5280,380C5200,380,5120,380,5040,380C4960,380,4880,380,4800,380C4720,380,4640,380,4560,380C4480,380,4400,380,4320,380C4240,380,4160,380,4080,380C4000,380,3920,380,3840,380C3760,380,3680,380,3600,380C3520,380,3440,380,3360,380C3280,380,3200,380,3120,380C3040,380,2960,380,2880,380C2800,380,2720,380,2640,380C2560,380,2480,380,2400,380C2320,380,2240,380,2160,380C2080,380,2000,380,1920,380C1840,380,1760,380,1680,380C1600,380,1520,380,1440,380C1360,380,1280,380,1200,380C1120,380,1040,380,960,380C880,380,800,380,720,380C640,380,560,380,480,380C400,380,320,380,240,380C160,380,80,380,40,380L0,380Z"/></svg>